<svg width="100%" height="100%" id="svg" viewBox="0 0 1440 490" xmlns="http://www.w3.org/2000/svg" class="transition duration-300 ease-in-out delay-150"><path d="M 0,500 C 0,500 0,250 0,250 C 72.11358615611192,264.6975331369661 144.22717231222384,279.39506627393223 210,255 C 275.77282768777616,230.60493372606774 335.20489690721655,167.1172680412371 377,189 C 418.79510309278345,210.8827319587629 442.95324005891007,318.1358615611193 506,331 C 569.0467599410899,343.8641384388807 670.9821428571429,262.33928571428567 741,249 C 811.0178571428571,235.66071428571433 849.1181885125184,290.5069955817379 895,286 C 940.8818114874816,281.4930044182621 994.5451030927834,217.63273195876286 1065,200 C 1135.4548969072166,182.36726804123714 1222.7013991163476,210.96207658321063 1288,227 C 1353.2986008836524,243.03792341678937 1396.6493004418262,246.51896170839467 1440,250 C 1440,250 1440,500 1440,500 Z" stroke="none" stroke-width="0" fill="#0693e3" fill-opacity="1" class="transition-all duration-300 ease-in-out delay-150 path-0"></path></svg>